<svg width="40" height="40" viewBox="0 0 40 40" fill="none" xmlns="http://www.w3.org/2000/svg">
<path d="M35.809 29.2422C35.0268 31.5078 33.8194 33.4421 32.1705 35.1054C29.9138 37.3819 27.2062 38.9073 24.1804 39.8869C22.8407 40.3206 21.2017 39.456 20.7869 38.1662C20.2826 36.5985 21.0577 35.0183 22.5755 34.5407C24.4737 33.9433 26.2038 33.035 27.6392 31.6501C29.222 30.123 30.1002 28.2603 30.1013 25.8147C29.6506 26.1762 29.3167 26.4331 28.9945 26.7039C26.7348 28.6031 24.2251 30.0614 21.3146 30.6384C17.1065 31.4727 13.3303 30.428 10.0641 27.6548C7.53687 25.5089 5.82249 22.8193 4.74703 19.6736C3.97374 17.4118 3.84738 15.1017 4.15538 12.8038C4.51658 10.109 5.71938 7.71551 7.5286 5.66328C9.88082 2.9951 12.8099 1.21046 16.1776 0.126473C17.5797 -0.324844 19.1954 0.477468 19.6351 1.80599C20.1661 3.41031 19.463 4.91173 17.8968 5.42166C15.5598 6.1826 13.4818 7.33815 11.9517 9.3099C10.8918 10.6758 10.2644 12.2064 10.3684 14.1363C11.0858 13.5761 11.6869 13.1169 12.2771 12.6439C14.6594 10.7348 17.3505 9.48634 20.3803 9.12356C23.4695 8.75369 26.3692 9.48281 28.933 11.2342C32.6406 13.7669 34.9829 17.2687 36.0505 21.6458C36.5304 23.6132 36.5729 25.5698 36.2445 27.5467C36.1523 28.1015 35.9659 28.6407 35.809 29.2422ZM12.1103 14.8416C11.1747 15.797 10.2392 16.7523 9.21037 17.803C9.08283 16.9881 8.98528 16.3124 8.87044 15.6397C8.28213 12.1932 9.40869 9.3202 11.8946 6.974C13.4414 5.51417 15.2984 4.52565 17.3476 3.91809C17.9313 3.74501 18.2934 3.17261 18.196 2.6166C18.0887 2.00369 17.6315 1.64529 16.9726 1.68774C16.6903 1.70594 16.3961 1.73398 16.133 1.82887C13.6193 2.73547 11.3394 4.04203 9.46407 5.96334C6.27548 9.23017 4.90233 13.1145 5.84135 17.6406C6.53301 20.9744 8.2277 23.8082 10.7238 26.1157C13.8328 28.9896 17.5011 29.9963 21.6126 28.9334C24.4854 28.1907 26.8981 26.5625 29.0095 24.5006C29.731 23.796 30.3883 23.0256 31.197 22.1536C31.31 22.812 31.3558 23.3269 31.4905 23.8175C31.9236 25.3958 31.8133 26.9811 31.3769 28.5059C30.7754 30.6082 29.541 32.331 27.778 33.6568C26.3595 34.7236 24.7953 35.4924 23.1258 36.088C22.7674 36.2158 22.3636 36.6351 22.2796 36.9907C22.2025 37.3171 22.4347 37.9568 22.6979 38.0701C23.1521 38.2658 23.7908 38.3178 24.2565 38.1557C27.1071 37.1635 29.6347 35.6155 31.6279 33.3289C34.5205 30.0105 35.5278 26.1375 34.4907 21.8607C33.6484 18.3877 31.7564 15.4864 28.9706 13.23C26.3215 11.0844 23.2302 10.2724 19.8974 10.8156C16.9427 11.2971 14.4187 12.7947 12.1103 14.8416Z" fill="url(#paint0_linear_2001_6731)"/>
<path d="M17.7963 14.1757C19.1864 13.8232 20.5183 13.6367 21.9113 13.8305C23.9053 14.1081 25.6665 14.8724 27.1153 16.2413C28.0091 17.0859 28.7592 18.0836 29.5629 19.022C29.9396 19.4619 29.968 19.9176 29.6168 20.4146C27.8964 22.8496 25.7261 24.7473 22.8927 25.7312C19.7883 26.8093 16.8552 26.3078 14.1612 24.4268C12.7811 23.4633 11.7049 22.2213 10.7831 20.8209C10.4911 20.3773 10.4843 20.0744 10.7832 19.6338C12.5229 17.0695 14.8197 15.233 17.7963 14.1757ZM22.5694 24.1285C24.7124 23.2778 26.4785 21.931 27.8326 20.0663C27.9491 19.9059 27.949 19.5168 27.8335 19.355C26.9518 18.1197 25.8818 17.0666 24.5294 16.3531C22.2695 15.1607 19.9507 14.9321 17.4686 16.0445C15.4483 16.8458 13.8995 18.2505 12.5776 19.9253C12.4633 20.0702 12.5007 20.4795 12.6263 20.6468C13.9011 22.3441 15.4612 23.6825 17.5416 24.2929C19.1954 24.7781 20.8435 24.7756 22.5694 24.1285Z" fill="url(#paint1_linear_2001_6731)"/>
<path d="M18.1215 17.3046C18.1123 17.1839 18.1032 17.0632 18.0652 16.9061C18.1389 16.8128 18.3112 16.6861 18.3339 16.7087C19.7808 18.1592 21.478 18.3453 23.3451 17.7358C23.4472 17.7025 23.5743 17.7458 23.7968 17.7605C23.4061 18.3602 23.0286 18.8814 22.7122 19.4374C22.0825 20.5442 21.9976 21.7085 22.4079 22.9193C22.4558 23.0606 22.3373 23.2583 22.2369 23.4297C20.6563 21.808 18.8351 21.5207 16.7451 22.2531C17.6823 21.0516 18.3991 19.8143 18.3387 18.1563C18.2616 17.7941 18.1915 17.5493 18.1215 17.3046Z" fill="url(#paint2_linear_2001_6731)"/>
<defs>
<linearGradient id="paint0_linear_2001_6731" x1="4" y1="-0.00293345" x2="39.5809" y2="3.00137" gradientUnits="userSpaceOnUse">
<stop stop-color="#5A009F"/>
<stop offset="1" stop-color="#F533E7"/>
</linearGradient>
<linearGradient id="paint1_linear_2001_6731" x1="10.5615" y1="13.7515" x2="31.3391" y2="17.0798" gradientUnits="userSpaceOnUse">
<stop stop-color="#5A009F"/>
<stop offset="1" stop-color="#F533E7"/>
</linearGradient>
<linearGradient id="paint2_linear_2001_6731" x1="16.7451" y1="16.7056" x2="24.439" y2="17.5452" gradientUnits="userSpaceOnUse">
<stop stop-color="#5A009F"/>
<stop offset="1" stop-color="#F533E7"/>
</linearGradient>
</defs>
</svg>
